<mxfile host="app.diagrams.net" agent="Mozilla/5.0 (Windows NT 10.0; Win64; x64) AppleWebKit/537.36 (KHTML, like Gecko) Chrome/131.0.0.0 Safari/537.36" version="25.0.3">
  <diagram name="Page-1" id="2YBvvXClWsGukQMizWep">
    <mxGraphModel dx="873" dy="594" grid="1" gridSize="10" guides="1" tooltips="1" connect="1" arrows="1" fold="1" page="1" pageScale="1" pageWidth="850" pageHeight="1100" math="0" shadow="0">
      <root>
        <mxCell id="0" />
        <mxCell id="1" parent="0" />
        <mxCell id="aM9ryv3xv72pqoxQDRHE-1" value="&lt;font style=&quot;font-size: 15px;&quot;&gt;User&lt;/font&gt;" style="shape=umlLifeline;perimeter=lifelinePerimeter;whiteSpace=wrap;html=1;container=0;dropTarget=0;collapsible=0;recursiveResize=0;outlineConnect=0;portConstraint=eastwest;newEdgeStyle={&quot;edgeStyle&quot;:&quot;elbowEdgeStyle&quot;,&quot;elbow&quot;:&quot;vertical&quot;,&quot;curved&quot;:0,&quot;rounded&quot;:0};" parent="1" vertex="1">
          <mxGeometry x="80" y="40" width="90" height="470" as="geometry" />
        </mxCell>
        <mxCell id="aM9ryv3xv72pqoxQDRHE-2" value="" style="html=1;points=[];perimeter=orthogonalPerimeter;outlineConnect=0;targetShapes=umlLifeline;portConstraint=eastwest;newEdgeStyle={&quot;edgeStyle&quot;:&quot;elbowEdgeStyle&quot;,&quot;elbow&quot;:&quot;vertical&quot;,&quot;curved&quot;:0,&quot;rounded&quot;:0};" parent="aM9ryv3xv72pqoxQDRHE-1" vertex="1">
          <mxGeometry x="45" y="80" width="10" height="360" as="geometry" />
        </mxCell>
        <mxCell id="aM9ryv3xv72pqoxQDRHE-5" value="&lt;font style=&quot;font-size: 15px;&quot;&gt;Chirp.Web&lt;/font&gt;" style="shape=umlLifeline;perimeter=lifelinePerimeter;whiteSpace=wrap;html=1;container=0;dropTarget=0;collapsible=0;recursiveResize=0;outlineConnect=0;portConstraint=eastwest;newEdgeStyle={&quot;edgeStyle&quot;:&quot;elbowEdgeStyle&quot;,&quot;elbow&quot;:&quot;vertical&quot;,&quot;curved&quot;:0,&quot;rounded&quot;:0};" parent="1" vertex="1">
          <mxGeometry x="270" y="40" width="110" height="470" as="geometry" />
        </mxCell>
        <mxCell id="aM9ryv3xv72pqoxQDRHE-6" value="" style="html=1;points=[];perimeter=orthogonalPerimeter;outlineConnect=0;targetShapes=umlLifeline;portConstraint=eastwest;newEdgeStyle={&quot;edgeStyle&quot;:&quot;elbowEdgeStyle&quot;,&quot;elbow&quot;:&quot;vertical&quot;,&quot;curved&quot;:0,&quot;rounded&quot;:0};" parent="aM9ryv3xv72pqoxQDRHE-5" vertex="1">
          <mxGeometry x="45" y="80" width="10" height="360" as="geometry" />
        </mxCell>
        <mxCell id="aM9ryv3xv72pqoxQDRHE-7" value="&lt;i&gt;&lt;font style=&quot;font-size: 13px;&quot;&gt;HTTP Request&lt;/font&gt;&lt;/i&gt;&lt;div&gt;&lt;font style=&quot;font-size: 13px;&quot;&gt;Path: &#39;/&#39;&lt;/font&gt;&lt;/div&gt;" style="html=1;verticalAlign=bottom;endArrow=block;edgeStyle=elbowEdgeStyle;elbow=vertical;curved=0;rounded=0;" parent="1" source="aM9ryv3xv72pqoxQDRHE-2" target="aM9ryv3xv72pqoxQDRHE-6" edge="1">
          <mxGeometry relative="1" as="geometry">
            <mxPoint x="195" y="130" as="sourcePoint" />
            <Array as="points">
              <mxPoint x="180" y="120" />
            </Array>
          </mxGeometry>
        </mxCell>
        <mxCell id="9dzD17S70cex56hJFyjR-1" value="&lt;font style=&quot;font-size: 13px;&quot;&gt;&lt;i style=&quot;&quot;&gt;C# call&lt;/i&gt;&lt;br&gt;&lt;/font&gt;&lt;div&gt;&lt;font style=&quot;font-size: 13px;&quot;&gt;CheepRepository.GetCheeps&lt;/font&gt;&lt;/div&gt;" style="html=1;verticalAlign=bottom;endArrow=classic;edgeStyle=elbowEdgeStyle;elbow=vertical;curved=0;rounded=0;endFill=1;" edge="1" parent="1" source="aM9ryv3xv72pqoxQDRHE-5" target="9dzD17S70cex56hJFyjR-3">
          <mxGeometry relative="1" as="geometry">
            <mxPoint x="385" y="160" as="sourcePoint" />
            <Array as="points">
              <mxPoint x="440" y="160" />
              <mxPoint x="590" y="160" />
              <mxPoint x="435" y="159.78" />
            </Array>
            <mxPoint x="635" y="160" as="targetPoint" />
          </mxGeometry>
        </mxCell>
        <mxCell id="9dzD17S70cex56hJFyjR-2" value="Chirp.Infrastructure" style="shape=umlLifeline;perimeter=lifelinePerimeter;whiteSpace=wrap;html=1;container=0;dropTarget=0;collapsible=0;recursiveResize=0;outlineConnect=0;portConstraint=eastwest;newEdgeStyle={&quot;edgeStyle&quot;:&quot;elbowEdgeStyle&quot;,&quot;elbow&quot;:&quot;vertical&quot;,&quot;curved&quot;:0,&quot;rounded&quot;:0};" vertex="1" parent="1">
          <mxGeometry x="540" y="40" width="110" height="470" as="geometry" />
        </mxCell>
        <mxCell id="9dzD17S70cex56hJFyjR-3" value="" style="html=1;points=[];perimeter=orthogonalPerimeter;outlineConnect=0;targetShapes=umlLifeline;portConstraint=eastwest;newEdgeStyle={&quot;edgeStyle&quot;:&quot;elbowEdgeStyle&quot;,&quot;elbow&quot;:&quot;vertical&quot;,&quot;curved&quot;:0,&quot;rounded&quot;:0};" vertex="1" parent="9dzD17S70cex56hJFyjR-2">
          <mxGeometry x="45" y="120" width="10" height="270" as="geometry" />
        </mxCell>
        <mxCell id="9dzD17S70cex56hJFyjR-4" value="&lt;font style=&quot;font-size: 15px;&quot;&gt;Database&lt;/font&gt;" style="shape=umlLifeline;perimeter=lifelinePerimeter;whiteSpace=wrap;html=1;container=0;dropTarget=0;collapsible=0;recursiveResize=0;outlineConnect=0;portConstraint=eastwest;newEdgeStyle={&quot;edgeStyle&quot;:&quot;elbowEdgeStyle&quot;,&quot;elbow&quot;:&quot;vertical&quot;,&quot;curved&quot;:0,&quot;rounded&quot;:0};" vertex="1" parent="1">
          <mxGeometry x="810" y="40" width="110" height="470" as="geometry" />
        </mxCell>
        <mxCell id="9dzD17S70cex56hJFyjR-5" value="" style="html=1;points=[];perimeter=orthogonalPerimeter;outlineConnect=0;targetShapes=umlLifeline;portConstraint=eastwest;newEdgeStyle={&quot;edgeStyle&quot;:&quot;elbowEdgeStyle&quot;,&quot;elbow&quot;:&quot;vertical&quot;,&quot;curved&quot;:0,&quot;rounded&quot;:0};" vertex="1" parent="9dzD17S70cex56hJFyjR-4">
          <mxGeometry x="45" y="170" width="10" height="130" as="geometry" />
        </mxCell>
        <mxCell id="9dzD17S70cex56hJFyjR-6" value="&lt;font style=&quot;font-size: 13px;&quot;&gt;&lt;i style=&quot;&quot;&gt;C# &amp;amp; SQL Call and Query&lt;/i&gt;&lt;br&gt;&lt;/font&gt;&lt;div&gt;&lt;font style=&quot;font-size: 13px;&quot;&gt;CheepDBContext.cheeps&lt;/font&gt;&lt;/div&gt;" style="html=1;verticalAlign=bottom;endArrow=classic;edgeStyle=elbowEdgeStyle;elbow=vertical;curved=0;rounded=0;endFill=1;" edge="1" parent="1" source="9dzD17S70cex56hJFyjR-2" target="9dzD17S70cex56hJFyjR-5">
          <mxGeometry relative="1" as="geometry">
            <mxPoint x="609.9992592592594" y="180" as="sourcePoint" />
            <Array as="points">
              <mxPoint x="840" y="210" />
              <mxPoint x="810.24" y="180" />
              <mxPoint x="655.24" y="179.78" />
            </Array>
            <mxPoint x="870" y="180" as="targetPoint" />
          </mxGeometry>
        </mxCell>
        <mxCell id="9dzD17S70cex56hJFyjR-7" value="&lt;font style=&quot;font-size: 13px;&quot;&gt;&lt;i style=&quot;&quot;&gt;C# &amp;amp; SQL Response&lt;/i&gt;&lt;br&gt;&lt;/font&gt;&lt;div&gt;&lt;font style=&quot;font-size: 13px;&quot;&gt;&amp;nbsp;List&amp;lt;CheepDTO&amp;gt;&lt;/font&gt;&lt;/div&gt;" style="html=1;verticalAlign=bottom;endArrow=none;edgeStyle=elbowEdgeStyle;elbow=vertical;curved=0;rounded=0;endFill=0;startArrow=classic;startFill=1;dashed=1;dashPattern=8 8;" edge="1" parent="1" source="9dzD17S70cex56hJFyjR-2" target="9dzD17S70cex56hJFyjR-5">
          <mxGeometry relative="1" as="geometry">
            <mxPoint x="650" y="270" as="sourcePoint" />
            <Array as="points">
              <mxPoint x="840" y="340" />
              <mxPoint x="830" y="390" />
              <mxPoint x="750" y="230" />
              <mxPoint x="800" y="270" />
              <mxPoint x="645" y="219.78" />
            </Array>
            <mxPoint x="910" y="270" as="targetPoint" />
          </mxGeometry>
        </mxCell>
        <mxCell id="9dzD17S70cex56hJFyjR-8" value="&lt;font style=&quot;font-size: 13px;&quot;&gt;&lt;i style=&quot;&quot;&gt;C# &amp;amp; SQL Response&lt;/i&gt;&lt;br&gt;&lt;/font&gt;&lt;div&gt;&lt;font style=&quot;font-size: 13px;&quot;&gt;List&amp;lt;CheepDTO&amp;gt;&lt;/font&gt;&lt;/div&gt;" style="html=1;verticalAlign=bottom;endArrow=none;edgeStyle=elbowEdgeStyle;elbow=vertical;curved=0;rounded=0;endFill=0;startArrow=classic;startFill=1;dashed=1;dashPattern=8 8;" edge="1" parent="1">
          <mxGeometry relative="1" as="geometry">
            <mxPoint x="324.75925925925935" y="429.9999999999999" as="sourcePoint" />
            <Array as="points">
              <mxPoint x="395" y="430" />
              <mxPoint x="445" y="470" />
              <mxPoint x="290" y="419.78" />
            </Array>
            <mxPoint x="585" y="429.9999999999999" as="targetPoint" />
          </mxGeometry>
        </mxCell>
        <mxCell id="9dzD17S70cex56hJFyjR-9" value="&lt;i&gt;&lt;font style=&quot;font-size: 13px;&quot;&gt;HTTP Response&lt;/font&gt;&lt;/i&gt;&lt;div&gt;&lt;font style=&quot;font-size: 13px;&quot;&gt;Path: &#39;/&#39;&lt;/font&gt;&lt;/div&gt;" style="html=1;verticalAlign=bottom;endArrow=none;edgeStyle=elbowEdgeStyle;elbow=vertical;curved=0;rounded=0;endFill=0;startArrow=classic;startFill=1;" edge="1" parent="1" source="aM9ryv3xv72pqoxQDRHE-2">
          <mxGeometry relative="1" as="geometry">
            <mxPoint x="140" y="479.89" as="sourcePoint" />
            <Array as="points">
              <mxPoint x="330" y="480" />
              <mxPoint x="170" y="519.89" />
              <mxPoint x="15" y="469.66999999999996" />
            </Array>
            <mxPoint x="320" y="479.8899999999999" as="targetPoint" />
          </mxGeometry>
        </mxCell>
      </root>
    </mxGraphModel>
  </diagram>
</mxfile>
